<svg viewBox="0 0 64 64" xmlns="http://www.w3.org/2000/svg">
  <!-- Body -->
  <rect x="20" y="32" width="24" height="20" fill="#DC143C"/>
  <rect x="16" y="28" width="32" height="8" fill="#DC143C"/>

  <!-- Head -->
  <rect x="18" y="12" width="28" height="20" fill="#DC143C"/>

  <!-- Eyes -->
  <rect x="22" y="18" width="2" height="2" fill="#000"/>
  <rect x="30" y="18" width="2" height="2" fill="#000"/>

  <!-- Mouth -->
  <rect x="24" y="24" width="2" height="2" fill="#000"/>
  <rect x="26" y="24" width="2" height="2" fill="#000"/>
  <rect x="28" y="24" width="2" height="2" fill="#000"/>

  <!-- Gear/wrench on chest (DevOps detail) -->
  <!-- Gear center -->
  <rect x="28" y="38" width="2" height="2" fill="#FFD700"/>
  <rect x="26" y="36" width="6" height="2" fill="#FFD700"/>
  <rect x="26" y="40" width="6" height="2" fill="#FFD700"/>
  <rect x="24" y="38" width="2" height="2" fill="#FFD700"/>
  <rect x="34" y="38" width="2" height="2" fill="#FFD700"/>
  <!-- Gear teeth -->
  <rect x="26" y="34" width="2" height="2" fill="#FFD700"/>
  <rect x="30" y="34" width="2" height="2" fill="#FFD700"/>
  <rect x="22" y="36" width="2" height="2" fill="#FFD700"/>
  <rect x="36" y="36" width="2" height="2" fill="#FFD700"/>

  <!-- Arms -->
  <rect x="10" y="34" width="8" height="6" fill="#DC143C"/>
  <rect x="46" y="34" width="8" height="6" fill="#DC143C"/>

  <!-- Legs -->
  <rect x="22" y="52" width="4" height="8" fill="#DC143C"/>
  <rect x="32" y="52" width="4" height="8" fill="#DC143C"/>

  <!-- Feet -->
  <rect x="20" y="60" width="8" height="2" fill="#8B0000"/>
  <rect x="32" y="60" width="8" height="2" fill="#8B0000"/>
</svg>