<svg viewBox="0 0 64 64" xmlns="http://www.w3.org/2000/svg">
  <!-- Body -->
  <rect x="20" y="32" width="24" height="20" fill="#00CED1"/>
  <rect x="16" y="28" width="32" height="8" fill="#00CED1"/>

  <!-- Head -->
  <rect x="18" y="12" width="28" height="20" fill="#00CED1"/>

  <!-- Eyes -->
  <rect x="22" y="18" width="2" height="2" fill="#000"/>
  <rect x="30" y="18" width="2" height="2" fill="#000"/>

  <!-- Mouth -->
  <rect x="24" y="24" width="2" height="2" fill="#000"/>
  <rect x="26" y="24" width="2" height="2" fill="#000"/>
  <rect x="28" y="24" width="2" height="2" fill="#000"/>

  <!-- Chart/graph on chest (Data Engineer detail) -->
  <!-- Bar chart -->
  <!-- Bar 1 -->
  <rect x="22" y="42" width="2" height="2" fill="#FFD700"/>
  <rect x="22" y="40" width="2" height="2" fill="#FFD700"/>

  <!-- Bar 2 -->
  <rect x="26" y="42" width="2" height="2" fill="#FF6347"/>
  <rect x="26" y="40" width="2" height="2" fill="#FF6347"/>
  <rect x="26" y="38" width="2" height="2" fill="#FF6347"/>
  <rect x="26" y="36" width="2" height="2" fill="#FF6347"/>

  <!-- Bar 3 -->
  <rect x="30" y="42" width="2" height="2" fill="#32CD32"/>
  <rect x="30" y="40" width="2" height="2" fill="#32CD32"/>
  <rect x="30" y="38" width="2" height="2" fill="#32CD32"/>

  <!-- Bar 4 -->
  <rect x="34" y="42" width="2" height="2" fill="#4169E1"/>
  <rect x="34" y="40" width="2" height="2" fill="#4169E1"/>
  <rect x="34" y="38" width="2" height="2" fill="#4169E1"/>
  <rect x="34" y="36" width="2" height="2" fill="#4169E1"/>

  <!-- Baseline -->
  <rect x="20" y="44" width="18" height="1" fill="#696969"/>

  <!-- Arms -->
  <rect x="10" y="34" width="8" height="6" fill="#00CED1"/>
  <rect x="46" y="34" width="8" height="6" fill="#00CED1"/>

  <!-- Legs -->
  <rect x="22" y="52" width="4" height="8" fill="#00CED1"/>
  <rect x="32" y="52" width="4" height="8" fill="#00CED1"/>

  <!-- Feet -->
  <rect x="20" y="60" width="8" height="2" fill="#008B8B"/>
  <rect x="32" y="60" width="8" height="2" fill="#008B8B"/>
</svg>