<svg viewBox="0 0 64 64" xmlns="http://www.w3.org/2000/svg">
  <!-- Body -->
  <rect x="20" y="32" width="24" height="20" fill="#4169E1"/>
  <rect x="16" y="28" width="32" height="8" fill="#4169E1"/>

  <!-- Head -->
  <rect x="18" y="12" width="28" height="20" fill="#4169E1"/>

  <!-- Antenna (CTO detail) -->
  <rect x="30" y="4" width="2" height="10" fill="#C0C0C0"/>
  <rect x="28" y="2" width="6" height="2" fill="#C0C0C0"/>

  <!-- Eyes -->
  <rect x="22" y="18" width="2" height="2" fill="#000"/>
  <rect x="30" y="18" width="2" height="2" fill="#000"/>

  <!-- Mouth -->
  <rect x="24" y="24" width="2" height="2" fill="#000"/>
  <rect x="26" y="24" width="2" height="2" fill="#000"/>
  <rect x="28" y="24" width="2" height="2" fill="#000"/>

  <!-- Tech circuits on chest -->
  <rect x="24" y="36" width="2" height="2" fill="#C0C0C0"/>
  <rect x="28" y="36" width="2" height="2" fill="#C0C0C0"/>
  <rect x="32" y="36" width="2" height="2" fill="#C0C0C0"/>
  <rect x="26" y="40" width="2" height="2" fill="#C0C0C0"/>
  <rect x="30" y="40" width="2" height="2" fill="#C0C0C0"/>

  <!-- Arms -->
  <rect x="10" y="34" width="8" height="6" fill="#4169E1"/>
  <rect x="46" y="34" width="8" height="6" fill="#4169E1"/>

  <!-- Legs -->
  <rect x="22" y="52" width="4" height="8" fill="#4169E1"/>
  <rect x="32" y="52" width="4" height="8" fill="#4169E1"/>

  <!-- Feet -->
  <rect x="20" y="60" width="8" height="2" fill="#1E90FF"/>
  <rect x="32" y="60" width="8" height="2" fill="#1E90FF"/>
</svg>