<svg viewBox="0 0 64 64" xmlns="http://www.w3.org/2000/svg">
  <!-- Body -->
  <rect x="20" y="32" width="24" height="20" fill="#000080"/>
  <rect x="16" y="28" width="32" height="8" fill="#000080"/>

  <!-- Head -->
  <rect x="18" y="12" width="28" height="20" fill="#000080"/>

  <!-- Eyes -->
  <rect x="22" y="18" width="2" height="2" fill="#FFF"/>
  <rect x="30" y="18" width="2" height="2" fill="#FFF"/>

  <!-- Mouth -->
  <rect x="24" y="24" width="2" height="2" fill="#FFF"/>
  <rect x="26" y="24" width="2" height="2" fill="#FFF"/>
  <rect x="28" y="24" width="2" height="2" fill="#FFF"/>

  <!-- Clipboard on chest (PM detail) -->
  <!-- Clipboard board -->
  <rect x="22" y="36" width="10" height="8" fill="#D2691E"/>
  <!-- Clipboard clip -->
  <rect x="28" y="34" width="4" height="2" fill="#696969"/>
  <!-- Checkboxes/list items -->
  <rect x="24" y="38" width="2" height="2" fill="#FFF"/>
  <rect x="26" y="38" width="4" height="2" fill="#FFF"/>
  <rect x="24" y="42" width="2" height="2" fill="#FFF"/>
  <rect x="26" y="42" width="4" height="2" fill="#FFF"/>

  <!-- Arms -->
  <rect x="10" y="34" width="8" height="6" fill="#000080"/>
  <rect x="46" y="34" width="8" height="6" fill="#000080"/>

  <!-- Legs -->
  <rect x="22" y="52" width="4" height="8" fill="#000080"/>
  <rect x="32" y="52" width="4" height="8" fill="#000080"/>

  <!-- Feet -->
  <rect x="20" y="60" width="8" height="2" fill="#000050"/>
  <rect x="32" y="60" width="8" height="2" fill="#000050"/>
</svg>