<svg viewBox="0 0 64 64" xmlns="http://www.w3.org/2000/svg">
  <!-- Body -->
  <rect x="20" y="32" width="24" height="20" fill="#FFD700"/>
  <rect x="16" y="28" width="32" height="8" fill="#FFD700"/>

  <!-- Head -->
  <rect x="18" y="12" width="28" height="20" fill="#FFD700"/>

  <!-- Crown (CEO detail) -->
  <rect x="16" y="8" width="4" height="4" fill="#FFA500"/>
  <rect x="20" y="6" width="4" height="4" fill="#FFA500"/>
  <rect x="24" y="4" width="4" height="4" fill="#FFA500"/>
  <rect x="28" y="6" width="4" height="4" fill="#FFA500"/>
  <rect x="32" y="8" width="4" height="4" fill="#FFA500"/>
  <rect x="24" y="8" width="4" height="2" fill="#FFD700"/>

  <!-- Eyes -->
  <rect x="22" y="18" width="2" height="2" fill="#000"/>
  <rect x="30" y="18" width="2" height="2" fill="#000"/>

  <!-- Mouth -->
  <rect x="24" y="24" width="2" height="2" fill="#000"/>
  <rect x="26" y="24" width="2" height="2" fill="#000"/>
  <rect x="28" y="24" width="2" height="2" fill="#000"/>

  <!-- Arms -->
  <rect x="10" y="34" width="8" height="6" fill="#FFD700"/>
  <rect x="46" y="34" width="8" height="6" fill="#FFD700"/>

  <!-- Legs -->
  <rect x="22" y="52" width="4" height="8" fill="#FFD700"/>
  <rect x="32" y="52" width="4" height="8" fill="#FFD700"/>

  <!-- Feet -->
  <rect x="20" y="60" width="8" height="2" fill="#FF8C00"/>
  <rect x="32" y="60" width="8" height="2" fill="#FF8C00"/>
</svg>